<svg xmlns="http://www.w3.org/2000/svg" width="16pt" height="16pt" version="1" viewBox="0 0 16.000000 16.000000"><path d="M2.06 4.84V6.5l.2.2c.13.1.26.22.3.26.13.12.36.33.46.42.05.05.17.16.26.24.1.08.2.2.25.23.07.07.18.17.46.42.18.18.45.43.5.46 0 .02.13.13.25.24.12.1.24.22.26.24.03.03.1.1.15.14l.1.1-.1.07c-.04.05-.12.13-.17.18-.05.05-.17.15-.25.23-.1.1-.2.2-.26.25-.06.06-.17.16-.25.23-.07.07-.18.16-.23.2-.06.05-.17.16-.27.25-.1.1-.2.2-.25.23-.04.04-.14.13-.23.2-.08.1-.2.2-.24.23-.04.03-.16.15-.26.24-.1.1-.2.2-.24.22-.03.03-.14.13-.25.23l-.2.17v1.65c0 .9.02 1.66.03 1.66.08.02.6 0 .6 0 0-.02 0-.02.02 0 .04 0 .18.02.2 0 0 0 0 0 .03 0 .02.02.17.02.2 0 .02 0 .03 0 .04 0 0 .02.17 0 .2 0 .02 0 .03 0 .04 0 .02.02.18 0 .2 0 .03 0 .04 0 .05 0 0 .02.18 0 .2 0 0 0 .03 0 .04 0 0 0 .02.02.02 0 0-.08 0-.22 0-.25s0-.05 0-.06c0 0 0-.03 0-.06 0-.05 0-.08 0-.24 0-.04 0-.1 0-.1 0-.04 0-.06 0-.07 0 0 0-.04 0-.07 0-.04 0-.1 0-.12 0-.18 0-.32 0-.32-.02 0-.02 0 0-.02 0-.04.02-.16 0-.2 0-.04 0-.06 0-.07 0 0 0-.04 0-.07 0-.06 0-.1 0-.25 0-.04 0-.1 0-.1 0-.04 0-.06 0-.07 0 0 0-.02 0-.05 0-.04 0-.1 0-.12 0-.03 0-.1 0-.16 0-.1.02-.1.1-.17.03-.04.1-.1.17-.17.04-.05.1-.1.1-.1s.03-.02.07-.06c.05-.05.17-.16.27-.25.1-.1.2-.2.24-.22.05-.04.32-.3.48-.44.03-.03.1-.1.2-.18.07-.07.18-.17.23-.22.3-.27.56-.52.68-.63.07-.07.13-.12.14-.13 0 0 .04.02.36.32.1.1.22.2.25.23.05.05.4.36.53.5.03.02.14.12.24.2.1.1.22.2.25.24.04.02.13.1.2.18.1.08.2.17.24.2.04.06.17.18.28.28.1.1.24.22.28.26l.07.07v1.22c0 .68 0 1.24 0 1.25 0 0 .3.02.87.02.56 0 .86-.02.86-.03 0 0 0 0 .02 0 0 .03.08.03.1 0 0 0 0-.75 0-1.65v-1.65l-.12-.12c-.07-.07-.15-.15-.18-.17-.1-.1-.45-.4-.52-.48-.04-.03-.13-.12-.2-.18-.07-.07-.17-.16-.22-.2-.05-.05-.17-.16-.27-.25-.1-.1-.2-.2-.26-.24-.03-.04-.16-.16-.26-.25-.1-.1-.22-.2-.25-.23-.05-.03-.16-.14-.26-.23-.1-.1-.22-.2-.25-.23-.05-.04-.15-.14-.24-.22L8 9.43l.1-.1c.05-.03.18-.16.3-.26.22-.22.27-.26.48-.45.1-.08.2-.18.23-.2.07-.06.4-.37.5-.47.1-.07.42-.38.5-.45.04-.04.12-.1.18-.17.06-.05.2-.18.32-.3.12-.1.25-.22.3-.27.06-.05.15-.13.2-.18l.1-.1V3.2l-.94-.02h-.93v2.5l-.1.1c-.04.03-.18.16-.3.27-.1.1-.23.2-.25.23-.02.02-.13.12-.24.22-.3.27-.3.28-.47.43-.08.08-.2.18-.24.22-.04.04-.16.15-.25.23-.1.08-.2.2-.26.24-.05.05-.17.16-.26.24-.1.08-.2.2-.25.23l-.08.07-.13-.13c-.1-.07-.23-.2-.33-.3-.1-.08-.2-.2-.26-.23-.04-.03-.16-.14-.25-.23-.1-.1-.2-.2-.24-.22-.02-.03-.13-.13-.24-.23-.1-.1-.2-.18-.2-.2-.02 0-.14-.1-.27-.23-.14-.13-.26-.24-.27-.25-.17-.16-.44-.4-.46-.42-.05-.03-.06-.28-.04-.6 0-.03 0-.08 0-.1-.02-.03-.02-.05 0-.06 0 0 0-.03 0-.06 0-.05 0-.08 0-.24 0-.04 0-.1 0-.1-.02-.04-.02-.06 0-.07 0 0 0-.04 0-.07 0-.06 0-.1 0-.25 0-.04 0-.1 0-.1-.02-.04-.02-.06 0-.07 0 0 0-.02 0-.05 0-.06 0-.12 0-.24 0-.02 0-.05 0-.05-.02 0-.02-.02-.02-.04.03-.03.03-.24.02-.24 0 0 0-.02 0-.05 0 0 0-.05 0-.07 0-.04 0-.04-.93-.05h-.94v1.66zM5.4 13.15c-.02 0-.02.24 0 .52v.5h1.03v-.5c0-.28 0-.52-.02-.53 0-.02-1 0-1 0zM6.9 13.16c0 .04 0 .74 0 .9v.1h1.02v-.5l.02-.53h-.52c-.45 0-.52 0-.52.03zM5.38 15.17v.53h1.04v-.05c0-.06 0-.9 0-.95v-.05H5.38v.52zM6.9 14.67c0 .03 0 .93 0 1v.03h1.02v-.53l.02-.52h-.52c-.37 0-.52 0-.52.02z"/></svg>